<svg id="visual" viewBox="0 0 960 300" width="960" height="300" xmlns="http://www.w3.org/2000/svg" xmlns:xlink="http://www.w3.org/1999/xlink" version="1.1"><path d="M0 44L17.8 45C35.7 46 71.3 48 106.8 49.7C142.3 51.3 177.7 52.7 213.2 53.8C248.7 55 284.3 56 320 55.2C355.7 54.3 391.3 51.7 426.8 51C462.3 50.3 497.7 51.7 533.2 52.5C568.7 53.3 604.3 53.7 640 55.5C675.7 57.3 711.3 60.7 746.8 59.7C782.3 58.7 817.7 53.3 853.2 53.3C888.7 53.3 924.3 58.7 942.2 61.3L960 64L960 0L942.2 0C924.3 0 888.7 0 853.2 0C817.7 0 782.3 0 746.8 0C711.3 0 675.7 0 640 0C604.3 0 568.7 0 533.2 0C497.7 0 462.3 0 426.8 0C391.3 0 355.7 0 320 0C284.3 0 248.7 0 213.2 0C177.7 0 142.3 0 106.8 0C71.3 0 35.7 0 17.8 0L0 0Z" fill="#0353a4"></path><path d="M0 34L17.8 37C35.7 40 71.3 46 106.8 46.7C142.3 47.3 177.7 42.7 213.2 42.8C248.7 43 284.3 48 320 50.5C355.7 53 391.3 53 426.8 53.2C462.3 53.3 497.7 53.7 533.2 51.8C568.7 50 604.3 46 640 45C675.7 44 711.3 46 746.8 47.5C782.3 49 817.7 50 853.2 50.8C888.7 51.7 924.3 52.3 942.2 52.7L960 53L960 0L942.2 0C924.3 0 888.7 0 853.2 0C817.7 0 782.3 0 746.8 0C711.3 0 675.7 0 640 0C604.3 0 568.7 0 533.2 0C497.7 0 462.3 0 426.8 0C391.3 0 355.7 0 320 0C284.3 0 248.7 0 213.2 0C177.7 0 142.3 0 106.8 0C71.3 0 35.7 0 17.8 0L0 0Z" fill="#0058a6"></path><path d="M0 28L17.8 28.5C35.7 29 71.3 30 106.8 30.5C142.3 31 177.7 31 213.2 30.7C248.7 30.3 284.3 29.7 320 31.7C355.7 33.7 391.3 38.3 426.8 41.2C462.3 44 497.7 45 533.2 44.3C568.7 43.7 604.3 41.3 640 39C675.7 36.7 711.3 34.3 746.8 32.5C782.3 30.7 817.7 29.3 853.2 28.8C888.7 28.3 924.3 28.7 942.2 28.8L960 29L960 0L942.2 0C924.3 0 888.7 0 853.2 0C817.7 0 782.3 0 746.8 0C711.3 0 675.7 0 640 0C604.3 0 568.7 0 533.2 0C497.7 0 462.3 0 426.8 0C391.3 0 355.7 0 320 0C284.3 0 248.7 0 213.2 0C177.7 0 142.3 0 106.8 0C71.3 0 35.7 0 17.8 0L0 0Z" fill="#005da7"></path><path d="M0 35L17.8 35.2C35.7 35.3 71.3 35.7 106.8 34.7C142.3 33.7 177.7 31.3 213.2 31.3C248.7 31.3 284.3 33.7 320 32.5C355.7 31.3 391.3 26.7 426.8 26.3C462.3 26 497.7 30 533.2 30.7C568.7 31.3 604.3 28.7 640 27.5C675.7 26.3 711.3 26.7 746.8 27.3C782.3 28 817.7 29 853.2 29.2C888.7 29.3 924.3 28.7 942.2 28.3L960 28L960 0L942.2 0C924.3 0 888.7 0 853.2 0C817.7 0 782.3 0 746.8 0C711.3 0 675.7 0 640 0C604.3 0 568.7 0 533.2 0C497.7 0 462.3 0 426.8 0C391.3 0 355.7 0 320 0C284.3 0 248.7 0 213.2 0C177.7 0 142.3 0 106.8 0C71.3 0 35.7 0 17.8 0L0 0Z" fill="#0063a9"></path><path d="M0 14L17.8 15.8C35.7 17.7 71.3 21.3 106.8 21.5C142.3 21.7 177.7 18.3 213.2 16.8C248.7 15.3 284.3 15.7 320 16.3C355.7 17 391.3 18 426.8 17.8C462.3 17.7 497.7 16.3 533.2 16.5C568.7 16.7 604.3 18.3 640 18.7C675.7 19 711.3 18 746.8 18.3C782.3 18.7 817.7 20.3 853.2 19.8C888.7 19.3 924.3 16.7 942.2 15.3L960 14L960 0L942.2 0C924.3 0 888.7 0 853.2 0C817.7 0 782.3 0 746.8 0C711.3 0 675.7 0 640 0C604.3 0 568.7 0 533.2 0C497.7 0 462.3 0 426.8 0C391.3 0 355.7 0 320 0C284.3 0 248.7 0 213.2 0C177.7 0 142.3 0 106.8 0C71.3 0 35.7 0 17.8 0L0 0Z" fill="#0068a9"></path><path d="M0 12L17.8 11.7C35.7 11.3 71.3 10.7 106.8 11.2C142.3 11.7 177.7 13.3 213.2 14C248.7 14.7 284.3 14.3 320 13.8C355.7 13.3 391.3 12.7 426.8 11.8C462.3 11 497.7 10 533.2 9.8C568.7 9.7 604.3 10.3 640 11.3C675.7 12.3 711.3 13.7 746.8 13.7C782.3 13.7 817.7 12.3 853.2 11.3C888.7 10.3 924.3 9.7 942.2 9.3L960 9L960 0L942.2 0C924.3 0 888.7 0 853.2 0C817.7 0 782.3 0 746.8 0C711.3 0 675.7 0 640 0C604.3 0 568.7 0 533.2 0C497.7 0 462.3 0 426.8 0C391.3 0 355.7 0 320 0C284.3 0 248.7 0 213.2 0C177.7 0 142.3 0 106.8 0C71.3 0 35.7 0 17.8 0L0 0Z" fill="#006daa"></path></svg>