<svg id="visual" viewBox="0 0 900 300" width="900" height="300" xmlns="http://www.w3.org/2000/svg" xmlns:xlink="http://www.w3.org/1999/xlink" version="1.1"><path d="M0 39L15 40.5C30 42 60 45 90 44.5C120 44 150 40 180 38C210 36 240 36 270 38.2C300 40.3 330 44.7 360 46.8C390 49 420 49 450 48.3C480 47.7 510 46.3 540 44.7C570 43 600 41 630 41.5C660 42 690 45 720 44.3C750 43.7 780 39.3 810 38.2C840 37 870 39 885 40L900 41L900 0L885 0C870 0 840 0 810 0C780 0 750 0 720 0C690 0 660 0 630 0C600 0 570 0 540 0C510 0 480 0 450 0C420 0 390 0 360 0C330 0 300 0 270 0C240 0 210 0 180 0C150 0 120 0 90 0C60 0 30 0 15 0L0 0Z" fill="#030509" stroke-linecap="round" stroke-linejoin="miter"></path></svg>