<svg id="visual" viewBox="0 0 900 300" width="900" height="300" xmlns="http://www.w3.org/2000/svg" xmlns:xlink="http://www.w3.org/1999/xlink" version="1.1"><path d="M0 51L21.5 50.7C43 50.3 86 49.7 128.8 49.5C171.7 49.3 214.3 49.7 257.2 47.3C300 45 343 40 385.8 40C428.7 40 471.3 45 514.2 45.2C557 45.3 600 40.7 642.8 41.2C685.7 41.7 728.3 47.3 771.2 50.8C814 54.3 857 55.7 878.5 56.3L900 57L900 0L878.5 0C857 0 814 0 771.2 0C728.3 0 685.7 0 642.8 0C600 0 557 0 514.2 0C471.3 0 428.7 0 385.8 0C343 0 300 0 257.2 0C214.3 0 171.7 0 128.8 0C86 0 43 0 21.5 0L0 0Z" fill="#171720" stroke-linecap="round" stroke-linejoin="miter"></path></svg>