<svg id="visual" viewBox="0 0 900 300" width="900" height="300" xmlns="http://www.w3.org/2000/svg" xmlns:xlink="http://www.w3.org/1999/xlink" version="1.1"><path d="M0 238L18.8 243.2C37.7 248.3 75.3 258.7 112.8 258.7C150.3 258.7 187.7 248.3 225.2 247.3C262.7 246.3 300.3 254.7 337.8 257.3C375.3 260 412.7 257 450.2 254.2C487.7 251.3 525.3 248.7 562.8 246.3C600.3 244 637.7 242 675.2 245.3C712.7 248.7 750.3 257.3 787.8 262.5C825.3 267.7 862.7 269.3 881.3 270.2L900 271L900 301L881.3 301C862.7 301 825.3 301 787.8 301C750.3 301 712.7 301 675.2 301C637.7 301 600.3 301 562.8 301C525.3 301 487.7 301 450.2 301C412.7 301 375.3 301 337.8 301C300.3 301 262.7 301 225.2 301C187.7 301 150.3 301 112.8 301C75.3 301 37.7 301 18.8 301L0 301Z" fill="#171720" stroke-linecap="round" stroke-linejoin="miter"></path></svg>