<svg width="512" height="512" viewBox="0 0 512 512" fill="none" xmlns="http://www.w3.org/2000/svg">
<g id="Nodejs/Default/False/True">
<rect width="512" height="512" rx="143" fill="white"/>
<path id="Arabic" d="M100.872 285.128H67.336L61.96 301H39.048L71.56 211.144H96.904L129.416 301H106.248L100.872 285.128ZM95.24 268.232L84.104 235.336L73.096 268.232H95.24ZM161.199 241.48C163.759 237.555 166.959 234.483 170.799 232.264C174.639 229.96 178.906 228.808 183.599 228.808V251.976H177.583C172.122 251.976 168.026 253.171 165.295 255.56C162.564 257.864 161.199 261.96 161.199 267.848V301H139.311V229.576H161.199V241.48ZM189.709 265.16C189.709 257.821 191.074 251.379 193.805 245.832C196.621 240.285 200.418 236.019 205.197 233.032C209.976 230.045 215.309 228.552 221.197 228.552C226.232 228.552 230.626 229.576 234.381 231.624C238.221 233.672 241.165 236.36 243.213 239.688V229.576H265.101V301H243.213V290.888C241.08 294.216 238.093 296.904 234.253 298.952C230.498 301 226.104 302.024 221.069 302.024C215.266 302.024 209.976 300.531 205.197 297.544C200.418 294.472 196.621 290.163 193.805 284.616C191.074 278.984 189.709 272.499 189.709 265.16ZM243.213 265.288C243.213 259.827 241.677 255.517 238.605 252.36C235.618 249.203 231.949 247.624 227.597 247.624C223.245 247.624 219.533 249.203 216.461 252.36C213.474 255.432 211.981 259.699 211.981 265.16C211.981 270.621 213.474 274.973 216.461 278.216C219.533 281.373 223.245 282.952 227.597 282.952C231.949 282.952 235.618 281.373 238.605 278.216C241.677 275.059 243.213 270.749 243.213 265.288ZM302.824 239.688C304.872 236.36 307.816 233.672 311.656 231.624C315.496 229.576 319.891 228.552 324.84 228.552C330.728 228.552 336.061 230.045 340.84 233.032C345.619 236.019 349.373 240.285 352.104 245.832C354.92 251.379 356.328 257.821 356.328 265.16C356.328 272.499 354.92 278.984 352.104 284.616C349.373 290.163 345.619 294.472 340.84 297.544C336.061 300.531 330.728 302.024 324.84 302.024C319.805 302.024 315.411 301.043 311.656 299.08C307.901 297.032 304.957 294.344 302.824 291.016V301H280.936V206.28H302.824V239.688ZM334.056 265.16C334.056 259.699 332.52 255.432 329.448 252.36C326.461 249.203 322.749 247.624 318.312 247.624C313.96 247.624 310.248 249.203 307.176 252.36C304.189 255.517 302.696 259.827 302.696 265.288C302.696 270.749 304.189 275.059 307.176 278.216C310.248 281.373 313.96 282.952 318.312 282.952C322.664 282.952 326.376 281.373 329.448 278.216C332.52 274.973 334.056 270.621 334.056 265.16ZM378.819 222.152C374.979 222.152 371.822 221.043 369.347 218.824C366.958 216.52 365.763 213.704 365.763 210.376C365.763 206.963 366.958 204.147 369.347 201.928C371.822 199.624 374.979 198.472 378.819 198.472C382.574 198.472 385.646 199.624 388.035 201.928C390.51 204.147 391.747 206.963 391.747 210.376C391.747 213.704 390.51 216.52 388.035 218.824C385.646 221.043 382.574 222.152 378.819 222.152ZM389.699 229.576V301H367.811V229.576H389.699ZM401.209 265.288C401.209 257.864 402.702 251.379 405.689 245.832C408.761 240.285 412.985 236.019 418.361 233.032C423.822 230.045 430.052 228.552 437.049 228.552C446.009 228.552 453.476 230.899 459.449 235.592C465.508 240.285 469.476 246.899 471.353 255.432H448.057C446.094 249.971 442.297 247.24 436.665 247.24C432.654 247.24 429.454 248.819 427.065 251.976C424.676 255.048 423.481 259.485 423.481 265.288C423.481 271.091 424.676 275.571 427.065 278.728C429.454 281.8 432.654 283.336 436.665 283.336C442.297 283.336 446.094 280.605 448.057 275.144H471.353C469.476 283.507 465.508 290.077 459.449 294.856C453.39 299.635 445.924 302.024 437.049 302.024C430.052 302.024 423.822 300.531 418.361 297.544C412.985 294.557 408.761 290.291 405.689 284.744C402.702 279.197 401.209 272.712 401.209 265.288Z" fill="black"/>
</g>
</svg>
