<svg width="512" height="512" viewBox="0 0 512 512" fill="none" xmlns="http://www.w3.org/2000/svg">
<path d="M436.04 114.56L285.12 24.96C276.12 19.64 266.04 16.96 256 16.96C245.96 16.96 235.88 19.64 226.88 25L75.9198 114.6C57.9198 125.28 46.7998 145.04 46.7998 166.44V345.64C46.7998 367.04 57.8798 386.8 75.9198 397.48L226.84 487.08C235.84 492.44 245.88 495.08 255.96 495.08C266 495.08 276.08 492.4 285.08 487.08L436.04 397.48C454.04 386.8 465.16 367 465.16 345.64V166.4C465.16 145.04 454.08 125.24 436.04 114.56V114.56ZM319.16 394.36L319.4 407.24C319.4 408.8 318.4 410.56 317.2 411.2L309.56 415.6C308.36 416.2 307.32 415.48 307.32 413.92L307.2 401.24C300.68 403.96 294.04 404.6 289.84 402.92C289.04 402.6 288.68 401.44 289 400.08L291.76 388.44C292 387.52 292.48 386.6 293.12 386.04C293.36 385.8 293.6 385.64 293.84 385.52C294.28 385.28 294.72 385.24 295.08 385.4C299.64 386.92 305.44 386.2 311.04 383.4C318.16 379.8 322.92 372.52 322.84 365.32C322.76 358.76 319.24 356.08 310.64 356C299.68 356.04 289.44 353.88 289.28 337.72C289.16 324.44 296.04 310.6 307 301.88L306.88 288.88C306.88 287.28 307.84 285.52 309.08 284.88L316.48 280.16C317.68 279.56 318.72 280.32 318.72 281.88L318.84 294.88C324.28 292.72 329 292.12 333.28 293.12C334.2 293.36 334.64 294.64 334.24 296.12L331.36 307.64C331.12 308.52 330.64 309.4 330.04 309.96C329.817 310.185 329.56 310.373 329.28 310.52C328.88 310.72 328.52 310.76 328.16 310.72C326.2 310.28 321.56 309.28 314.24 312.96C306.56 316.84 303.88 323.52 303.92 328.48C304 334.4 307 336.2 317.48 336.36C331.44 336.6 337.44 342.68 337.6 356.72C337.8 370.48 330.44 385.32 319.16 394.36V394.36ZM424.52 152.36L281.72 240.56C263.92 250.96 250.8 262.64 250.76 284.12V460.08C250.76 472.92 255.96 481.24 263.92 483.68C261.32 484.12 258.64 484.44 256 484.44C247.64 484.44 239.4 482.16 232.16 477.88L81.2398 388.28C66.4798 379.52 57.3198 363.16 57.3198 345.6V166.4C57.3198 148.84 66.4798 132.48 81.2398 123.72L232.2 34.12C239.44 29.84 247.68 27.56 256.04 27.56C264.4 27.56 272.64 29.84 279.88 34.12L430.84 123.72C443.28 131.12 451.68 143.88 454.04 158.24C448.96 147.56 437.68 144.68 424.52 152.36Z" fill="white"/>
<path d="M396.48 362.92L358.88 385.4C357.88 386 357.16 386.64 357.16 387.84V397.68C357.16 398.88 357.96 399.4 358.96 398.8L397.12 375.6C398.12 375 398.28 373.92 398.28 372.72V364.04C398.28 362.84 397.48 362.36 396.48 362.92Z" fill="#4FA847"/>
</svg>
