<svg width="512" height="512" viewBox="0 0 512 512" fill="none" xmlns="http://www.w3.org/2000/svg">
<g id="Nodejs/Default/False/True">
<rect width="512" height="512" rx="143" fill="white"/>
<path id="English" d="M47.824 228.68V246.856H77.136V263.752H47.824V283.464H80.976V301H25.936V211.144H80.976V228.68H47.824ZM138.706 228.808C147.069 228.808 153.725 231.539 158.674 237C163.709 242.376 166.226 249.8 166.226 259.272V301H144.466V262.216C144.466 257.437 143.229 253.725 140.754 251.08C138.279 248.435 134.951 247.112 130.77 247.112C126.589 247.112 123.261 248.435 120.786 251.08C118.311 253.725 117.074 257.437 117.074 262.216V301H95.186V229.576H117.074V239.048C119.293 235.891 122.279 233.416 126.034 231.624C129.789 229.747 134.013 228.808 138.706 228.808ZM208.572 228.552C213.607 228.552 218.001 229.576 221.756 231.624C225.596 233.672 228.54 236.36 230.588 239.688V229.576H252.476V300.872C252.476 307.443 251.153 313.373 248.508 318.664C245.948 324.04 241.98 328.307 236.604 331.464C231.313 334.621 224.7 336.2 216.764 336.2C206.183 336.2 197.607 333.683 191.036 328.648C184.465 323.699 180.711 316.957 179.772 308.424H201.404C202.087 311.155 203.708 313.288 206.268 314.824C208.828 316.445 211.985 317.256 215.74 317.256C220.263 317.256 223.847 315.933 226.492 313.288C229.223 310.728 230.588 306.589 230.588 300.872V290.76C228.455 294.088 225.511 296.819 221.756 298.952C218.001 301 213.607 302.024 208.572 302.024C202.684 302.024 197.351 300.531 192.572 297.544C187.793 294.472 183.996 290.163 181.18 284.616C178.449 278.984 177.084 272.499 177.084 265.16C177.084 257.821 178.449 251.379 181.18 245.832C183.996 240.285 187.793 236.019 192.572 233.032C197.351 230.045 202.684 228.552 208.572 228.552ZM230.588 265.288C230.588 259.827 229.052 255.517 225.98 252.36C222.993 249.203 219.324 247.624 214.972 247.624C210.62 247.624 206.908 249.203 203.836 252.36C200.849 255.432 199.356 259.699 199.356 265.16C199.356 270.621 200.849 274.973 203.836 278.216C206.908 281.373 210.62 282.952 214.972 282.952C219.324 282.952 222.993 281.373 225.98 278.216C229.052 275.059 230.588 270.749 230.588 265.288ZM290.199 206.28V301H268.311V206.28H290.199ZM317.069 222.152C313.229 222.152 310.072 221.043 307.597 218.824C305.208 216.52 304.013 213.704 304.013 210.376C304.013 206.963 305.208 204.147 307.597 201.928C310.072 199.624 313.229 198.472 317.069 198.472C320.824 198.472 323.896 199.624 326.285 201.928C328.76 204.147 329.997 206.963 329.997 210.376C329.997 213.704 328.76 216.52 326.285 218.824C323.896 221.043 320.824 222.152 317.069 222.152ZM327.949 229.576V301H306.061V229.576H327.949ZM372.867 302.024C366.638 302.024 361.091 300.957 356.227 298.824C351.363 296.691 347.523 293.789 344.707 290.12C341.891 286.365 340.312 282.184 339.971 277.576H361.603C361.859 280.051 363.011 282.056 365.059 283.592C367.107 285.128 369.624 285.896 372.611 285.896C375.342 285.896 377.432 285.384 378.883 284.36C380.419 283.251 381.187 281.843 381.187 280.136C381.187 278.088 380.12 276.595 377.987 275.656C375.854 274.632 372.398 273.523 367.619 272.328C362.499 271.133 358.232 269.896 354.819 268.616C351.406 267.251 348.462 265.16 345.987 262.344C343.512 259.443 342.275 255.56 342.275 250.696C342.275 246.6 343.384 242.888 345.603 239.56C347.907 236.147 351.235 233.459 355.587 231.496C360.024 229.533 365.272 228.552 371.331 228.552C380.291 228.552 387.331 230.771 392.451 235.208C397.656 239.645 400.643 245.533 401.411 252.872H381.187C380.846 250.397 379.736 248.435 377.859 246.984C376.067 245.533 373.678 244.808 370.691 244.808C368.131 244.808 366.168 245.32 364.803 246.344C363.438 247.283 362.755 248.605 362.755 250.312C362.755 252.36 363.822 253.896 365.955 254.92C368.174 255.944 371.587 256.968 376.195 257.992C381.486 259.357 385.795 260.723 389.123 262.088C392.451 263.368 395.352 265.501 397.827 268.488C400.387 271.389 401.71 275.315 401.795 280.264C401.795 284.445 400.6 288.2 398.211 291.528C395.907 294.771 392.536 297.331 388.099 299.208C383.747 301.085 378.67 302.024 372.867 302.024ZM459.09 228.808C467.282 228.808 473.853 231.539 478.802 237C483.751 242.376 486.226 249.8 486.226 259.272V301H464.466V262.216C464.466 257.437 463.229 253.725 460.754 251.08C458.279 248.435 454.951 247.112 450.77 247.112C446.589 247.112 443.261 248.435 440.786 251.08C438.311 253.725 437.074 257.437 437.074 262.216V301H415.186V206.28H437.074V239.176C439.293 236.019 442.322 233.501 446.162 231.624C450.002 229.747 454.311 228.808 459.09 228.808Z" fill="black"/>
</g>
</svg>
