<svg width="512" height="512" viewBox="0 0 512 512" fill="none" xmlns="http://www.w3.org/2000/svg">
<g id="Nodejs/Default/False/True">
<rect width="512" height="512" rx="143" fill="white"/>
<path id="French" d="M95.432 211.144V228.68H58.824V247.624H86.216V264.648H58.824V301H36.936V211.144H95.432ZM128.824 241.48C131.384 237.555 134.584 234.483 138.424 232.264C142.264 229.96 146.531 228.808 151.224 228.808V251.976H145.208C139.747 251.976 135.651 253.171 132.92 255.56C130.189 257.864 128.824 261.96 128.824 267.848V301H106.936V229.576H128.824V241.48ZM229.014 264.136C229.014 266.184 228.886 268.317 228.63 270.536H179.094C179.435 274.973 180.843 278.387 183.318 280.776C185.878 283.08 188.993 284.232 192.662 284.232C198.123 284.232 201.921 281.928 204.054 277.32H227.35C226.155 282.013 223.979 286.237 220.822 289.992C217.75 293.747 213.867 296.691 209.174 298.824C204.481 300.957 199.233 302.024 193.43 302.024C186.433 302.024 180.203 300.531 174.742 297.544C169.281 294.557 165.014 290.291 161.942 284.744C158.87 279.197 157.334 272.712 157.334 265.288C157.334 257.864 158.827 251.379 161.814 245.832C164.886 240.285 169.153 236.019 174.614 233.032C180.075 230.045 186.347 228.552 193.43 228.552C200.342 228.552 206.486 230.003 211.862 232.904C217.238 235.805 221.419 239.944 224.406 245.32C227.478 250.696 229.014 256.968 229.014 264.136ZM206.614 258.376C206.614 254.621 205.334 251.635 202.774 249.416C200.214 247.197 197.014 246.088 193.174 246.088C189.505 246.088 186.39 247.155 183.83 249.288C181.355 251.421 179.819 254.451 179.222 258.376H206.614ZM284.081 228.808C292.444 228.808 299.1 231.539 304.049 237C309.084 242.376 311.601 249.8 311.601 259.272V301H289.841V262.216C289.841 257.437 288.604 253.725 286.129 251.08C283.654 248.435 280.326 247.112 276.145 247.112C271.964 247.112 268.636 248.435 266.161 251.08C263.686 253.725 262.449 257.437 262.449 262.216V301H240.561V229.576H262.449V239.048C264.668 235.891 267.654 233.416 271.409 231.624C275.164 229.747 279.388 228.808 284.081 228.808ZM322.459 265.288C322.459 257.864 323.952 251.379 326.939 245.832C330.011 240.285 334.235 236.019 339.611 233.032C345.072 230.045 351.302 228.552 358.299 228.552C367.259 228.552 374.726 230.899 380.699 235.592C386.758 240.285 390.726 246.899 392.603 255.432H369.307C367.344 249.971 363.547 247.24 357.915 247.24C353.904 247.24 350.704 248.819 348.315 251.976C345.926 255.048 344.731 259.485 344.731 265.288C344.731 271.091 345.926 275.571 348.315 278.728C350.704 281.8 353.904 283.336 357.915 283.336C363.547 283.336 367.344 280.605 369.307 275.144H392.603C390.726 283.507 386.758 290.077 380.699 294.856C374.64 299.635 367.174 302.024 358.299 302.024C351.302 302.024 345.072 300.531 339.611 297.544C334.235 294.557 330.011 290.291 326.939 284.744C323.952 279.197 322.459 272.712 322.459 265.288ZM448.215 228.808C456.407 228.808 462.978 231.539 467.927 237C472.876 242.376 475.351 249.8 475.351 259.272V301H453.591V262.216C453.591 257.437 452.354 253.725 449.879 251.08C447.404 248.435 444.076 247.112 439.895 247.112C435.714 247.112 432.386 248.435 429.911 251.08C427.436 253.725 426.199 257.437 426.199 262.216V301H404.311V206.28H426.199V239.176C428.418 236.019 431.447 233.501 435.287 231.624C439.127 229.747 443.436 228.808 448.215 228.808Z" fill="black"/>
</g>
</svg>
