<svg width="514" height="512" viewBox="0 0 514 512" fill="none" xmlns="http://www.w3.org/2000/svg">
<path d="M302.6 1.2002C299 1.2002 295.4 2.0002 292.2 3.2002C299 7.6002 302.6 13.6002 304.6 20.4002C304.6 21.2002 305 22.0002 305 22.8002C305 23.6002 305.4 24.4002 305.4 25.2002C305.8 36.8002 302.2 38.4002 299.8 45.2002C295.8 54.0002 297 63.6002 301.8 71.2002C302.2 72.0002 302.6 73.2002 303.4 74.0002C298.2 40.4002 326.2 35.6002 331.4 25.2002C331.8 16.0002 324.2 10.0002 318.2 5.60019C312.2 2.0002 307.4 1.2002 302.6 1.2002ZM344.6 8.4002C344.2 11.6002 344.6 10.8002 344.2 12.4002C344.2 13.6002 344.2 14.8002 343.8 16.0002C343.4 17.2002 343.4 18.0002 343 19.2002C342.6 20.4002 342.2 21.2002 341.8 22.4002C341.4 23.2002 341 24.0002 340.6 25.2002C340.2 25.6002 339.8 26.4002 339.4 26.8002C339 27.2002 339 27.6002 338.6 28.0002C337.8 28.8002 337.4 30.0002 336.6 30.8002L334.2 33.2002C333.4 34.0002 332.6 34.8002 331.8 35.2002C329 37.2002 325.8 38.8002 323 40.8002C322.2 41.6002 321 42.0002 320.2 42.8002C319.4 43.6002 318.6 44.0002 317.8 44.8002L315.4 47.2002C314.6 48.0002 313.8 48.8002 313.4 50.0002C312.6 50.8002 312.2 52.0002 311.4 52.8002C311 54.0002 310.6 54.8002 309.8 56.0002C309.4 57.2002 309 58.0002 308.6 59.2002C308.2 60.4002 307.8 61.6002 307.8 62.4002C307.8 62.8002 307.8 63.6002 307.4 64.0002C307.4 64.4002 307.4 65.2002 307 65.6002V71.2002C307 72.4002 307 73.2002 307.4 74.4002C307.4 75.6002 307.8 76.4002 308.2 77.6002C308.6 78.8002 309 79.6002 309.4 80.8002C309.8 81.6002 310.2 82.0002 310.2 82.8002L279.8 71.2002C274.6 69.6002 269.8 68.4002 264.6 67.2002C261.8 66.4002 259 66.0002 256.2 65.2002C248.2 63.6002 240.2 62.4002 232.2 61.6002H231.4C223.4 60.8002 215.8 60.4002 207.8 60.4002C201.8 60.4002 196.2 60.8002 190.6 61.2002C182.6 61.6002 174.6 62.8002 166.6 64.0002L160.6 65.2002C156.6 66.0002 152.6 66.8002 148.6 68.0002C146.6 68.4002 144.6 69.2002 142.6 69.6002C140.6 70.4002 138.6 71.2002 137 72.0002C135.4 72.8002 134.2 73.2002 132.6 74.0002C132.2 74.0002 132.2 74.0002 131.8 74.4002C130.6 75.2002 129.4 75.6002 128.2 76.4002C127.8 76.4002 127.4 76.8002 127.4 76.8002C125.8 77.6002 124.6 78.4002 123.4 78.8002C122.6 79.2002 121.4 79.6002 120.6 80.0002C120.2 80.4002 119.8 80.4002 119.4 80.8002C118.2 81.6002 117 82.0002 115.8 82.8002C114.6 83.6002 113.4 84.0002 112.6 84.8002C111.8 85.6002 110.6 86.0002 109.8 86.8002C109.8 86.8002 109.4 86.8002 109.4 87.2002C108.6 87.6002 107.8 88.4002 107 89.2002L106.6 89.6002C105.8 90.0002 105.4 90.8002 104.6 91.2002C104.2 91.2002 104.2 91.6002 103.8 91.6002C103 92.0002 102.6 92.8002 101.8 93.2002C101.8 93.6002 101.4 93.6002 101.4 93.6002L99.0001 96.0002L98.6001 96.4002L96.2001 98.8002C96.2001 98.8002 96.2001 99.2002 95.8001 99.2002L93.8001 101.2C93.4001 101.6 93.0001 101.6 93.0001 102L90.6001 104.4C90.6001 104.8 90.2001 104.8 90.2001 105.2L87.0001 108.4L86.6001 108.8C84.6001 111.2 82.2001 113.2 79.8001 115.2C77.4001 117.2 75.0001 119.2 72.2001 121.2C69.4001 123.2 67.0001 124.8 64.2001 126.4C61.4001 128 58.6001 129.2 55.8001 130.4C53.0001 131.6 50.2001 132.8 47.4001 133.6C41.8001 134.8 36.2001 137.2 31.4001 137.6C31.4001 135.6 30.2001 136 29.0001 136C27.8001 136.4 26.6001 136.4 25.8001 136.8C24.6001 137.2 23.8001 137.6 22.6001 138C21.4001 138.4 20.6001 138.8 19.4001 139.6C18.6001 140.4 17.4001 140.8 16.6001 141.6C15.8001 142.4 14.6001 143.2 13.8001 144C13.0001 144.8 11.8001 145.6 11.0001 146.4C10.2001 147.2 9.4001 148 8.6001 149.2C7.8001 150.4 7.0001 151.2 6.6001 152.4C5.8001 153.2 5.4001 154.4 4.6001 155.6C4.2001 156.8 3.4001 158 3.0001 159.2L1.8001 162.8C1.4001 164 1.4001 164.8 1.0001 166V166.4C0.600098 167.6 0.600098 169.2 0.600098 170C1.0001 169.6 1.0001 170.4 1.0001 171.2V172.8C1.0001 173.6 1.4001 174.4 1.4001 175.2C1.8001 176 1.8001 176.8 2.2001 177.6C2.6001 178.4 3.0001 179.2 3.8001 180C4.2001 180.8 5.0001 181.6 5.4001 182.4C6.2001 183.2 7.0001 184 7.8001 184.4C8.6001 185.2 9.4001 186 10.2001 186.4C13.4001 189.2 14.2001 190 18.2001 192.4C19.0001 192.8 19.4001 193.2 20.2001 193.6H20.6001V194.4C20.6001 195.6 21.0001 196.4 21.4001 197.6C21.8001 198.8 22.2001 200 22.6001 200.8L23.8001 203.2C23.8001 203.6 24.2001 203.6 24.2001 204C24.6001 205.2 25.4001 206 25.8001 206.8C26.6001 207.6 27.0001 208.8 27.8001 209.6L30.2001 212L32.6001 214.4H33.0001C33.8001 215.2 34.6001 215.6 35.4001 216.4C36.2001 217.2 37.4001 217.6 38.2001 218C39.0001 218.4 40.2001 219.2 41.4001 219.6C42.2001 220 43.0001 220.4 44.2001 220.4C44.2001 220.4 44.6001 220.4 44.6001 220.8C45.0001 220.8 45.8001 221.2 46.2001 221.2C45.8001 228.4 45.8001 235.2 46.6001 237.6C47.8001 240.4 53.8001 232 59.4001 222.8C58.6001 232 58.2001 242.8 59.4001 246C61.0001 249.2 68.6001 238.8 75.8001 227.6C169.4 206 255 270.8 264.2 362.4C262.6 348 245 340 236.6 342C232.6 351.6 225.8 364.4 215 372C215.8 363.2 215.4 354.4 213.8 345.6C211 357.6 205.4 369.2 197.4 378.8C185 379.6 172.2 373.6 165.8 364.4C165.4 364 165 363.2 164.6 362.8C164.2 362 163.8 360.8 163.4 360C163 359.2 162.6 358 162.6 357.2V354.4V352.4C162.6 351.6 163 350.4 163.4 349.6C163.8 348.8 163.8 347.6 164.2 346.8C164.6 346 165 344.8 165.8 344C168.2 337.6 168.2 332.4 163.8 329.6L161.4 328.4C161 328.4 160.2 328 159.8 328C159.4 328 159 327.6 158.6 327.6C157.8 327.2 156.6 327.2 155.8 326.8C155 326.4 153.8 326.4 153 326.4C152.2 326.4 151 326 150.2 326H148.2C147 326 146.2 326 145.4 326.4C144.6 326.4 143.4 326.8 142.6 326.8C141.8 327.2 140.6 327.2 139.8 327.6C139 328 138.2 328.4 137 328.8L134.6 330C103.8 350 122.2 397.2 143 410.8C135 412.4 127 414 124.6 415.6L124.2 416C129.8 419.6 135.8 422.4 142.2 424.8C150.6 427.6 159.8 430 163.8 431.2C174.6 433.6 185.8 434.4 197 433.6C255.4 429.6 303.4 384.8 312.2 326.4C312.6 327.6 312.6 328.8 313 330C313.4 332.4 313.8 334.8 314.2 337.6C314.6 338.8 314.6 340 314.6 341.2V341.6C314.6 342.8 315 344 315 345.2C315 346.8 315.4 348 315.4 349.6V366.4C315.4 367.6 315 368.4 315 369.6V370.8C315 372 314.6 373.2 314.6 374.8C314.2 376 314.2 377.2 313.8 378.4V378.8C313.4 380 313.4 381.2 313 382.4V382.8C312.6 384 312.6 385.2 312.2 386.4V386.8L311 390.4V390.8C310.6 392 310.2 393.6 309.8 394.8C309.4 396 309 397.2 308.2 398.8C307.8 400 307.4 401.6 306.6 402.8C306.2 404 305.4 405.2 305 406.8C304.6 408 303.8 409.2 303.4 410.4C303.4 410.8 303 411.2 303 411.2C303 411.2 303 411.6 302.6 411.6C294.2 428.8 281.4 444 265.4 456C264.2 456.8 263.4 457.6 262.2 458.4C261.8 458.8 261.4 458.8 261.4 459.2C260.6 460 259.4 460.4 258.6 461.2L259 462C261 461.6 262.6 461.6 264.6 461.2C268.2 460.8 271.4 460 275 459.2C275.8 459.2 277 458.8 277.8 458.4C278.6 458.4 279 458 279.8 458C280.6 458 281.8 457.6 282.6 457.6C283.4 457.2 284.2 457.2 285 456.8C298.2 453.6 311 449.2 323.4 444C302.2 472.8 274.2 496 241.4 511.2C256.6 510 271.8 507.6 286.6 503.2C339.8 487.6 384.6 451.6 411.4 403.2C405.8 433.6 393.8 462.8 375.8 488.4C388.6 480 400.2 470 411 459.2C440.6 428.4 460.2 388.8 466.6 346.8C471 367.6 472.6 389.2 470.6 410.4C566.2 277.2 478.6 139.2 441.8 102.8C441.8 102.4 441.4 102.4 441.4 102C441.4 103.6 441.4 105.2 441 106.8C440.6 110 440.2 112.8 439.8 115.6C439 118.4 438.2 121.6 437.4 124.4C436.6 127.2 435.4 130 434.2 132.8C433 135.6 431.8 138.4 430.2 140.8C428.6 143.2 427 146 425.4 148.4C423.8 150.8 421.8 153.2 419.8 155.6C417.8 158 415.8 160 413.4 162.4C412.2 163.6 411 164.8 409.4 165.6C408.2 166.4 407.4 167.2 406.2 168.4C403.8 170.4 401.4 172 398.6 173.6C396.2 175.2 393.4 176.8 390.6 178L382.2 181.6C379.4 182.8 376.6 183.6 373.8 184.4C371 185.2 367.8 186 365 186.4C361.8 186.8 359 187.2 356.2 187.6C354.2 187.6 351.8 188 349.8 188C346.6 188 343.8 187.6 341 187.6C337.8 187.2 335 186.8 332.2 186.4C329 186 326.2 185.2 323.4 184C326.2 183.6 329.4 183.6 332.2 182.8C335.4 182.4 338.2 181.6 341 180.8C343.8 180 347 179.2 349.4 178L357.8 174.4C360.6 173.2 363 171.6 365.8 170C368.2 168.4 371 166.4 373.4 164.8C375.8 162.8 378.2 160.8 380.2 158.8C382.6 156.8 384.6 154.4 386.6 152.4C388.6 150 390.6 147.6 392.2 145.2C392.6 144.8 392.6 144.4 393 144C394.2 142 395.8 139.6 397 137.6C398.6 134.8 399.8 132.4 401 129.6C402.2 126.8 403.4 124 404.2 121.2L406.6 112.8C407 109.6 407.8 106.8 407.8 104C408.2 100.8 408.2 98.0002 408.2 95.2002C408.2 93.2002 408.2 90.8002 407.8 88.8002C407.4 85.6002 407 82.8002 406.6 80.0002C406.2 76.8002 405.4 74.0002 404.6 71.2002C403.8 68.4002 402.6 65.6002 401.8 62.8002C400.6 60.0002 399.4 57.2002 398.2 54.8002C396.6 52.0002 395.4 49.6002 393.8 46.8002C392.2 44.4002 390.2 42.0002 388.6 39.6002C386.6 37.2002 384.6 35.2002 382.6 32.8002C381.4 31.6002 380.2 30.4002 379 29.6002C373 24.8002 367 20.8002 360.6 16.8002C359.8 16.4002 359 16.0002 357.8 15.6002C352.6 11.2002 348.6 10.0002 344.6 8.4002V8.4002Z" fill="#DF234F"/>
</svg>
