<svg width="512" height="512" viewBox="0 0 512 512" fill="none" xmlns="http://www.w3.org/2000/svg">
<path d="M80.38 336.38C36.068 336.38 0 300.312 0 256C0 211.688 36.068 175.62 80.38 175.62C124.692 175.62 160.76 211.688 160.76 256C160.76 300.312 124.692 336.38 80.38 336.38ZM80.38 322.956C117.44 322.956 147.34 293.06 147.34 256C147.34 218.94 117.44 189.04 80.38 189.04C71.5828 189.026 62.8695 190.749 54.7393 194.109C46.6092 197.469 39.2221 202.401 33.0016 208.622C26.781 214.842 21.8493 222.229 18.4891 230.359C15.1289 238.489 13.4063 247.203 13.42 256C13.42 293.06 43.32 322.96 80.38 322.96V322.956Z" fill="white"/>
<path fill-rule="evenodd" clip-rule="evenodd" d="M58.8921 252.412C76.4921 238.032 93.7121 223.156 111.696 209.196C102.264 223.692 92.5601 237.996 83.1281 252.488C75.0361 252.528 66.9441 252.528 58.8921 252.412V252.412ZM73.7721 260.428C81.9001 260.428 89.9921 260.428 98.0841 260.544C80.3641 274.848 63.2281 289.84 45.2041 303.76C54.6361 289.264 64.3401 274.92 73.7721 260.428Z" fill="white"/>
<path fill-rule="evenodd" clip-rule="evenodd" d="M196.076 282.192C199.376 284.028 204.236 285.312 209.648 285.312C221.48 285.312 227.808 279.44 227.808 271.372C227.716 264.768 223.956 260.64 215.888 257.704C210.2 255.688 208.088 254.312 208.088 251.468C208.088 248.72 210.288 246.792 214.328 246.792C218.268 246.792 221.848 248.26 223.772 249.36L225.972 241.38C223.404 240.004 219.092 238.72 214.14 238.72C203.78 238.72 197.268 244.864 197.268 252.752C197.176 257.98 200.844 262.752 209.556 265.776C215.06 267.704 216.892 269.26 216.892 272.288C216.892 275.224 214.692 277.24 209.74 277.24C205.704 277.24 200.844 275.588 198.276 274.032L196.076 282.192ZM253.516 238.72C240.036 238.72 230.408 247.708 230.408 262.38C230.408 276.688 240.128 285.4 252.784 285.4C264.156 285.4 275.712 278.064 275.712 261.648C275.712 248.076 266.816 238.72 253.516 238.72V238.72ZM253.244 246.972C260.948 246.972 264.064 254.952 264.064 261.924C264.064 270.912 259.572 277.24 253.152 277.24C246.272 277.24 242.056 270.728 242.056 262.108C242.056 254.676 245.264 246.972 253.244 246.972ZM312.428 274.672C310.228 275.592 307.476 276.412 303.532 276.412C295.828 276.412 289.868 271.188 289.868 262.012C289.776 253.852 294.908 247.524 303.532 247.524C307.568 247.524 310.228 248.444 312.06 249.268L314.08 240.828C311.512 239.636 307.292 238.72 303.164 238.72C287.484 238.72 278.312 249.176 278.312 262.564C278.312 276.412 287.392 285.308 301.332 285.308C306.924 285.308 311.604 284.116 313.988 283.016L312.428 274.672ZM329.792 219.272H318.512V284.392H329.792V269.168L333.644 264.672L346.484 284.392H360.332L341.44 257.98L357.948 239.728H344.376L333.552 254.128C332.36 255.688 331.076 257.608 329.976 259.356H329.792V219.272ZM398.608 265.224C398.792 264.212 398.976 262.564 398.976 260.452C398.976 250.64 394.208 238.716 379.716 238.716C365.408 238.716 357.888 250.364 357.888 262.748C357.888 276.412 366.42 285.308 380.908 285.308C387.328 285.308 392.648 284.116 396.5 282.556L394.848 274.76C391.456 276.044 387.696 276.78 382.468 276.78C375.316 276.78 368.988 273.292 368.708 265.22L398.608 265.224ZM368.712 257.336C369.168 252.748 372.104 246.42 379.072 246.42C386.592 246.42 388.432 253.208 388.336 257.336H368.712ZM406.16 229.636V239.728H399.74V248.164H406.16V269.164C406.16 275.036 407.26 279.072 409.644 281.64C411.756 283.932 415.24 285.308 419.364 285.308C422.944 285.308 425.88 284.848 427.528 284.208L427.348 275.588C426.336 275.86 424.868 276.136 422.948 276.136C418.632 276.136 417.168 273.296 417.168 267.884V248.164H427.896V239.724H417.168V226.98L406.16 229.636ZM437.648 285.396C441.868 285.396 444.62 282.276 444.62 278.156C444.62 273.84 441.78 270.908 437.648 270.908C433.612 270.908 430.68 273.932 430.68 278.152C430.68 282.28 433.52 285.396 437.648 285.396ZM461.248 284.388V239.724H449.876V284.388H461.248ZM455.564 221.108C451.804 221.108 449.236 223.764 449.236 227.248C449.236 230.644 451.712 233.304 455.476 233.304C459.416 233.304 461.892 230.644 461.892 227.248C461.8 223.768 459.416 221.104 455.564 221.104V221.108ZM489.804 238.712C476.324 238.712 466.692 247.704 466.692 262.376C466.692 276.684 476.412 285.396 489.072 285.396C500.444 285.396 512 278.06 512 261.644C512 248.068 503.104 238.712 489.804 238.712V238.712ZM489.528 246.968C497.232 246.968 500.352 254.948 500.352 261.916C500.352 270.904 495.856 277.236 489.436 277.236C482.556 277.236 478.34 270.724 478.34 262.1C478.34 254.672 481.548 246.968 489.528 246.968V246.968Z" fill="white"/>
</svg>
