<svg width="512" height="512" viewBox="0 0 512 512" fill="none" xmlns="http://www.w3.org/2000/svg">
<path d="M397.752 183.624C391.38 212.952 369.924 310.568 369.924 310.568H412.988C415.568 298.536 417.572 287.46 420.508 275.228C425.696 253.548 431.516 244.964 446.908 244.964C453.696 244.964 460.72 247.272 460.72 256.544C460.72 260.76 451.04 302.164 449.34 310.572H492.196C492.196 310.572 505.484 246.108 505.596 245.372C506.044 243.204 507.016 236.84 507.016 236.84C507.016 221.44 486.976 214.18 476.548 213.88C469.004 213.668 474.688 213.752 467 213.88C454.66 214.092 438.26 220.948 431.052 228.304L430.24 228.912L430.648 227.896L440.396 184.432C440.355 184.122 440.21 183.836 439.984 183.62H397.744L397.752 183.624ZM193.832 212.664C189.608 212.6 182.652 212.604 171.488 212.872C149.168 213.404 115.836 220.28 115.836 252.272C115.836 270.368 132.636 271.944 147.516 273.4C159.156 274.548 170.684 275.908 182.044 277.056C185.316 277.36 188.544 278.096 188.544 281.728C188.544 287.888 183.464 289.836 176.356 290.46C169.252 291.088 167.624 290.46 167.624 290.46C163.144 290.46 155.48 287.752 156.452 281.32H105.88V288.84C105.9 313.04 144.96 313.132 152.192 314.02H164.784L184.08 313.412C209.84 311.712 237.72 303.992 238.92 273.196C239.752 251.948 212.6 252.556 200.736 251.256H197.488C196.88 251.256 178.436 249.384 169.256 248.416C167.856 248.256 161.536 247.324 161.536 243.536C161.536 236.016 175.364 236.224 178.396 236.224C183.268 236.224 193.812 236.016 193.424 244.344H241.16C241.256 242.572 241.972 240.976 241.972 239.064C241.972 217.648 214.492 213.584 199.524 212.864C199.524 212.864 198.06 212.732 193.836 212.664H193.832ZM322.192 212.664C320.304 212.596 317.72 212.648 306.552 212.872C284.192 213.32 250.7 220.48 250.7 252.48C250.7 270.572 267.508 272.148 282.38 273.6C294.02 274.752 305.548 276.112 316.912 277.26C320.184 277.564 323.412 278.3 323.412 281.932C323.412 288.092 317.076 290.292 311.224 290.664C305.368 291.036 302.492 290.664 302.492 290.664C298.004 290.664 290.348 288.156 291.32 281.728H240.748V289.248C240.708 312.128 279.668 313.628 287.056 314.024L299.648 314.432L318.944 313.824C344.704 312.132 372.484 304.396 373.784 273.608C374.64 253.304 348.424 253.58 336.004 251.876L332.352 251.464C331.744 251.464 313.3 249.792 304.12 248.824C302.72 248.672 296.6 247.532 296.6 243.744C296.6 236.232 310.228 236.436 313.256 236.436C318.136 236.436 328.676 236.228 328.288 244.556H376.02C376.116 242.784 376.832 241.188 376.832 239.276C376.832 217.856 349.216 213.716 334.384 213.284C325.304 213.004 324.088 212.736 322.196 212.664H322.192ZM79.1082 180.984C79.1082 173.152 73.5602 167.172 65.2962 167.172C57.5442 167.172 51.2802 173.152 51.2802 180.984C51.2802 188.324 57.2402 195 65.0922 195C72.5162 195 79.1082 189.152 79.1082 180.984V180.984ZM117.092 148.28C117.092 142.32 113.192 134.68 104.904 134.68C97.3642 134.68 93.5282 141.3 93.5282 147.268C93.5282 153.04 97.6082 161.484 105.716 161.484C113.252 161.484 117.088 154.06 117.088 148.284L117.092 148.28ZM83.1482 369.468C76.2362 369.468 67.1162 378.5 67.1162 385.308C67.1162 388.772 68.7322 390.588 72.5002 390.588C77.4282 390.588 83.8882 386.416 86.9522 380.228C87.5522 379.016 87.9922 376.964 87.9922 376.576V373.124C87.9922 370.244 85.1642 369.472 83.1402 369.472L83.1482 369.468ZM53.7202 352.612C46.0802 352.612 35.4402 360.58 35.4402 369.472C35.4402 373.872 38.1762 375.972 42.1442 375.972C49.4882 375.972 61.0322 368.272 61.0322 358.912C61.0322 354.296 57.8042 352.612 53.7202 352.612ZM32.6002 243.54C39.8202 243.54 49.8602 238.552 49.8602 228.308C49.8602 220.572 43.4842 215.716 36.4602 215.716C28.8202 215.716 18.9882 221.016 18.9882 230.944C18.9882 238.584 25.1602 243.536 32.5962 243.536L32.6002 243.54ZM41.3322 327.02C41.3322 321.052 36.9162 318.692 31.9882 318.692C24.7882 318.692 12.2882 325.612 12.2882 335.552C12.2882 341.16 16.1082 343.672 21.4282 343.672C28.2402 343.672 41.3322 337.5 41.3322 327.02V327.02ZM36.4562 280.708C36.4562 273.6 30.6562 270.348 24.4722 270.348C24.0802 270.348 23.7922 270.228 22.2322 270.348C13.3042 271.096 4.97217 278.788 4.97217 286.596C4.97217 293.896 11.6122 296.956 17.3602 296.956C24.8002 296.956 36.4562 291.248 36.4562 280.704V280.708ZM115.468 372.108C108.988 372.108 101.452 380.764 101.452 386.732C101.452 387.612 101.468 389.332 103.076 390.388C104.756 391.492 107.764 391.588 111.396 389.168C116.276 385.916 119.524 380.16 119.524 376.368C119.524 374.288 118.192 372.108 115.464 372.108H115.468ZM207.48 139.344C202.04 139.344 200.16 147.784 200.16 150.516C200.16 153.22 201.1 159.244 205.852 159.244C211.428 159.244 213.164 150.804 213.164 148.072C213.164 145.776 211.936 139.34 207.484 139.336L207.48 139.344ZM225.144 161.688C220.12 161.688 218.24 169.94 218.24 172.448C218.24 174.552 219.04 179.56 222.912 179.56C227.8 179.56 229.616 171.512 229.616 169C229.616 167.332 228.876 161.688 225.144 161.688V161.688ZM180.868 124.112C174.548 124.112 172.54 132.02 172.54 135.688C172.54 138.104 174.028 146.712 180.06 146.656C186.084 146.596 188.38 138.764 188.38 134.876C188.38 131.852 186.932 124.108 180.868 124.108V124.112ZM172.336 347.128C166.604 347.128 162.588 355.888 162.588 359.316C162.588 361.104 163.044 362.968 165.636 362.968C171.304 362.968 175.38 354.356 175.38 350.78C175.38 349.108 174.768 347.124 172.332 347.124L172.336 347.128ZM145.528 120.864C138.62 120.864 135.98 129.064 135.98 133.456C135.98 138.068 139.38 146.048 146.14 146.048C152.988 146.048 155.604 137.86 155.48 133.66C155.32 128.284 153.064 120.86 145.528 120.86V120.864ZM145.528 363.58C139.248 363.58 133.952 372.58 133.952 377.188C133.952 379.508 135.008 380.844 137.404 380.844C143.084 380.844 148.984 372.164 148.984 367.644C148.984 365.66 148.576 363.584 145.532 363.584L145.528 363.58Z" fill="white"/>
</svg>
