<svg width="512" height="512" viewBox="0 0 512 512" fill="none" xmlns="http://www.w3.org/2000/svg">
<path d="M92.2559 27.38C91.6817 27.4012 91.1194 27.5501 90.61 27.816C90.1006 28.082 89.6569 28.4582 89.3113 28.9172C88.9657 29.3763 88.7268 29.9066 88.612 30.4697C88.4973 31.0327 88.5095 31.6143 88.6479 32.172L172.136 370.092C172.299 370.749 172.633 371.352 173.103 371.84C173.573 372.327 174.162 372.683 174.813 372.871C175.464 373.059 176.152 373.073 176.81 372.911C177.468 372.749 178.071 372.417 178.56 371.948L429.692 130.352C430.18 129.882 430.537 129.292 430.725 128.64C430.913 127.989 430.927 127.299 430.764 126.641C430.602 125.983 430.269 125.379 429.799 124.89C429.329 124.401 428.739 124.045 428.088 123.856L93.4639 27.528C93.0716 27.4152 92.6639 27.3652 92.2559 27.38V27.38ZM97.7519 36.8L419.512 129.428L178.032 361.736L97.7519 36.8V36.8Z" fill="white"/>
<path d="M259.6 75.544C258.623 75.5602 257.688 75.9461 256.984 76.624L131.476 197.444C130.988 197.914 130.631 198.505 130.443 199.157C130.255 199.808 130.242 200.498 130.405 201.156C130.568 201.814 130.901 202.418 131.372 202.907C131.842 203.396 132.433 203.752 133.084 203.94L300.296 252.132C300.948 252.32 301.637 252.332 302.295 252.169C302.953 252.006 303.556 251.673 304.045 251.202C304.533 250.732 304.889 250.142 305.077 249.491C305.265 248.839 305.279 248.15 305.116 247.492L263.412 78.48C263.202 77.631 262.71 76.8783 262.017 76.345C261.324 75.8117 260.471 75.5293 259.596 75.544H259.6ZM257.52 86.832L296.012 242.86L141.656 198.368L257.52 86.832V86.832Z" fill="white"/>
<path d="M197.308 135.34C196.735 135.363 196.175 135.512 195.667 135.778C195.159 136.044 194.717 136.42 194.373 136.878C194.028 137.336 193.79 137.864 193.675 138.426C193.56 138.987 193.571 139.567 193.708 140.124L214.412 224.076C214.574 224.735 214.907 225.34 215.378 225.829C215.848 226.319 216.439 226.676 217.091 226.864C217.743 227.053 218.433 227.066 219.092 226.903C219.751 226.74 220.355 226.407 220.844 225.936L283.192 165.852C283.681 165.381 284.037 164.79 284.224 164.139C284.412 163.487 284.425 162.797 284.261 162.139C284.098 161.48 283.764 160.876 283.294 160.388C282.823 159.9 282.232 159.544 281.58 159.356L198.52 135.488C198.126 135.375 197.717 135.325 197.308 135.34V135.34ZM202.804 144.756L273.012 164.928L220.308 215.72L202.804 144.76V144.756Z" fill="white"/>
<path d="M176.656 51.476C175.677 51.4912 174.741 51.8772 174.036 52.556L111.688 112.672C111.199 113.142 110.843 113.733 110.655 114.385C110.467 115.036 110.454 115.726 110.617 116.384C110.78 117.042 111.113 117.646 111.584 118.135C112.054 118.624 112.644 118.98 113.296 119.168L196.36 143.036C197.011 143.224 197.701 143.236 198.359 143.073C199.017 142.91 199.62 142.577 200.109 142.106C200.597 141.636 200.953 141.046 201.141 140.395C201.329 139.743 201.343 139.054 201.18 138.396L180.472 54.42C180.263 53.5702 179.771 52.8167 179.078 52.2826C178.385 51.7485 177.531 51.4655 176.656 51.48V51.476ZM174.568 62.776L192.076 133.764L121.86 113.588L174.568 62.776V62.776ZM342.8 99.352C341.824 99.3692 340.891 99.755 340.188 100.432L277.828 160.52C277.342 160.991 276.988 161.582 276.802 162.234C276.616 162.885 276.604 163.574 276.768 164.231C276.932 164.888 277.266 165.491 277.737 165.978C278.207 166.465 278.797 166.821 279.448 167.008L362.504 190.876C363.155 191.064 363.845 191.076 364.503 190.913C365.161 190.75 365.764 190.417 366.253 189.947C366.741 189.476 367.097 188.886 367.285 188.235C367.473 187.583 367.487 186.894 367.324 186.236L346.616 102.288C346.406 101.439 345.914 100.686 345.221 100.153C344.528 99.6197 343.674 99.3373 342.8 99.352V99.352ZM340.72 110.648L358.228 181.608L288.016 161.432L340.72 110.648ZM218.096 219.376C217.12 219.393 216.187 219.779 215.484 220.456L153.124 280.536C152.636 281.007 152.28 281.599 152.093 282.251C151.905 282.903 151.893 283.593 152.057 284.252C152.222 284.91 152.556 285.514 153.028 286.002C153.5 286.49 154.092 286.845 154.744 287.032L237.832 310.9C238.483 311.087 239.172 311.099 239.829 310.935C240.487 310.772 241.09 310.438 241.577 309.968C242.065 309.498 242.421 308.908 242.609 308.257C242.797 307.606 242.81 306.918 242.648 306.26L221.912 222.312C221.702 221.463 221.21 220.71 220.517 220.177C219.824 219.644 218.97 219.361 218.096 219.376V219.376ZM216.016 230.668L233.544 301.628L163.312 281.46L216.016 230.668V230.668Z" fill="white"/>
<path d="M103.824 458.8C102.016 462.964 98.5999 464.776 95.3519 464.776C91.2439 464.776 87.3959 461.788 87.3959 455.784V434.504H104.66V429.02H87.3959V414.056L81.3079 413.624V429.02H74.7319V434.504H81.3079V455.784C81.3079 465.292 88.2279 470.776 95.4399 470.776C100.72 470.776 106.208 467.936 109.28 461.272L103.824 458.8ZM154.864 464.948V448.52C154.864 438.352 150.612 427.9 140.072 427.9C135.016 427.9 129.732 430.224 127.752 433.816V414.056L121.688 413.624V469.656H127.748V440.304C129.56 436.716 132.116 433.984 137.084 433.984C144.264 433.984 148.372 439.788 148.372 446.968V469.656H155.292C154.86 468.192 154.86 466.496 154.86 464.948H154.864ZM201.732 435.68L205.492 429.792C200.9 427.984 199.348 427.9 197.8 427.9C194.64 427.9 188.236 428.416 185.392 433.816C185.392 432.868 185.992 429.792 186.512 429.016H171.548V433.556L179.848 433.988V464.688H167.268V469.656H198.228C197.8 468.192 197.8 466.496 197.8 464.948V464.688H185.736V441.34C187.116 435.252 194.812 431.92 201.736 435.68H201.732ZM232.52 427.9C220.888 427.9 214.8 435.508 214.484 448.604V452.284C214.484 463.052 222.18 470.776 232.864 470.776C238.868 470.776 244.412 468.192 248.344 463.912L244.756 459.464C240.132 463.912 236.284 465.208 232.692 465.208C225.512 465.208 220.46 459.892 220.46 452.28L249.468 452.108L249.552 448.604C250.072 435.424 244.068 427.9 232.52 427.9V427.9ZM243.148 446.796H220.548C220.888 438.436 224.048 433.212 231.916 433.212C239.788 433.212 243.548 438.092 243.148 446.796ZM279.564 427.9C267.932 427.9 261.844 435.508 261.5 448.604V452.284C261.5 463.052 269.196 470.776 279.908 470.776C282.823 470.765 285.704 470.15 288.368 468.968C291.033 467.787 293.423 466.065 295.388 463.912L291.8 459.464C287.176 463.912 283.328 465.208 279.736 465.208C272.556 465.208 267.504 459.892 267.504 452.28L296.512 452.108L296.596 448.604C297.116 435.424 291.112 427.9 279.564 427.9V427.9ZM290.164 446.796H267.588C267.932 438.436 271.092 433.212 278.96 433.212C286.832 433.212 290.592 438.092 290.16 446.796H290.164ZM321.812 466.24C321.812 469.14 323.452 470.776 326.352 470.776C329.164 470.776 330.804 469.14 330.804 466.24C330.804 463.4 329.164 461.788 326.352 461.788C323.536 461.788 321.812 463.396 321.812 466.24ZM380.572 421.84C383.388 421.84 385.028 420.288 385.028 417.3C385.028 414.46 383.388 412.936 380.576 412.936C377.76 412.936 376.124 414.456 376.124 417.3C376.124 420.288 377.672 421.84 380.576 421.84H380.572ZM369.72 429.02V433.556L378.104 433.988V469.656C378.104 475.716 374.256 478.648 370.148 478.648C366.788 478.648 363.372 476.836 361.588 472.728L356.188 475.116C359.264 481.892 364.748 484.62 370.064 484.62C377.244 484.62 384.164 479.22 384.164 469.66L384.252 429.02H369.72ZM422.824 446.396C415.04 444.928 411.448 443.036 411.448 439.788C411.448 436.112 415.9 433.468 422.132 433.468C426.584 433.468 429.572 434.82 432.904 438.352L436.752 434.504C433.764 430.224 428.308 427.9 421.444 427.9C412.052 427.9 405.704 432.696 405.704 439.96C405.704 446.308 410.584 449.984 422.304 452.368C429.4 453.748 431.552 455.008 431.552 457.768C431.552 461.788 426.672 465.292 421.1 465.292C416.332 465.292 412.052 462.652 408.116 458.028L404.012 462.22C408.204 467.764 413.748 470.78 421.012 470.78C430.864 470.78 437.268 465.292 437.268 457.68C437.268 451.508 433.076 448.348 422.824 446.396V446.396Z" fill="white"/>
</svg>
